# xmcd
#
# Track frame offsets:
#	150
#	37031
#	71646
#	105476
#	172816
#	199033
#
# Disc length: 3246 seconds
# Revision: 0
# Processed by: cddbd v1.5.2PL0 Copyright (c) Steve Scherf et al.
# Submitted via: dBpowerAMP V12.0
#
DISCID=490cac06
DTITLE=Johnny Winter - Live Bootleg Series Vol 2
DYEAR=2008
DGENRE=Blues
TTITLE0=Black Cat Bone
TTITLE1=Parchman Farm
TTITLE2=Rock Me Baby
TTITLE3=Mississippi Blues
TTITLE4=Crossroads
TTITLE5=Red House
EXTD=
EXTT0=
EXTT1=
EXTT2=
EXTT3=
EXTT4=
EXTT5=
PLAYORDER=
